{"title":"Eastern Prommises 2007 DVDrip English Klam","uid":6201748,"size":1588220214,"categoryP":"video","categoryS":"movies","magnet":"?xt=urn:btih:44fd9f4cc5b973e5ab366033caf1aef077c46079&amp;dn=Eastern+Prommises+2007+DVDrip+English+Klam&amp;tr=udp%3A%2F%2Ftracker.openbittorrent.com%3A80&amp;tr=udp%3A%2F%2Fopen.demonii.com%3A1337&amp;tr=udp%3A%2F%2Ftracker.coppersurfer.tk%3A6969&amp;tr=udp%3A%2F%2Fexodus.desync.com%3A6969","seeders":0,"leechers":0,"uploader":"Klambake","files":3,"time":1298642785,"description":"With: Viggo Mortensen, Naomi Watts and Vincent Cassel\n\nIn London, the Russian pregnant teenager Tatiana arrives bleeding in a hospital, and the doctors save her baby only. The Russian descendant midwife Anna Khitrova finds Tatiana's diary written in Russian language in her belongings and decided to find her family to deliver the baby, she brings the diary home and ask her uncle Stepan to translate the document. Stepan refuses, but Anna finds a card of a restaurant owned by the Russian Semyon inside the diary and she visits the old man trying to find a lead to contact Tatiana's family. When she mentions the existence of the diary, Semyon immediately offers to translate the document. However, Stepan translates part of the diary and Anna discovers that Semyon and his sick son Kirill had raped Tatiana when she was fourteen years old and forced her to work as prostitute in a brothel of their own. Further, Semyon is the dangerous boss of the Russian mafia &quot;Vory v Zakone&quot;...\n\nGeneral:\n\nComplete name                    : Eastern Prommises\\Eastern Prommises.avi\nFormat                           : AVI\nFormat/Info                      : Audio Video Interleave\nFile size                        : 1.48 GiB\nDuration                         : 1h 33mn\nOverall bit rate                 : 2 270 Kbps\n\nVideo:\n\nFormat                           : MPEG-4 Visual\nFormat profile                   : Simple@L3\nFormat settings, BVOP            : No\nFormat settings, QPel            : No\nFormat settings, GMC             : No warppoints\nFormat settings, Matrix          : Default (H.263)\nCodec ID                         : XVID\nCodec ID/Hint                    : XviD\nDuration                         : 1h 33mn\nBit rate                         : 1 811 Kbps\nWidth                            : 704 pixels\nHeight                           : 396 pixels\nDisplay aspect ratio             : 16:9\nFrame rate                       : 25.000 fps\nColor space                      : YUV\nChroma subsampling               : 4:2:0\nBit depth                        : 8 bits\nScan type                        : Progressive\nBits/(Pixel*Frame)               : 0.260\nStream size                      : 1.18 GiB (80%)\nWriting library                  : XviD 1.1.2 (UTC 2006-11-01)\n\nAudio:\n\nFormat                           : AC-3\nFormat/Info                      : Audio Coding 3\nMode extension                   : CM (complete main)\nCodec ID                         : 2000\nDuration                         : 1h 33mn\nBit rate mode                    : Constant\nBit rate                         : 448 Kbps\nChannel(s)                       : 6 channels\nChannel positions                : Front: L C R, Side: L R, LFE\nSampling rate                    : 48.0 KHz\nBit depth                        : 16 bits\nStream size                      : 299 MiB (20%)\nAlignment                        : Aligned on interleaves\nInterleave, duration             : 32 ms (0.80 video frame)\n\n","torrent":{"xt":"urn:btih:44fd9f4cc5b973e5ab366033caf1aef077c46079","amp;dn":"Eastern+Prommises+2007+DVDrip+English+Klam","amp;tr":["udp%3A%2F%2Ftracker.openbittorrent.com%3A80","udp%3A%2F%2Fopen.demonii.com%3A1337","udp%3A%2F%2Ftracker.coppersurfer.tk%3A6969","udp%3A%2F%2Fexodus.desync.com%3A6969"],"infoHash":"44fd9f4cc5b973e5ab366033caf1aef077c46079","infoHashBuffer":{"type":"Buffer","data":[68,253,159,76,197,185,115,229,171,54,96,51,202,241,174,240,119,196,96,121]},"announce":[],"urlList":[]}}